<svg width="452" height="264" xmlns="http://www.w3.org/2000/svg"><g fill="none" fill-rule="evenodd"><path d="M53.037 176.45c7.149-2.245 15.31-.613 21.266 3.909 5.955 4.522 9.663 11.743 10.253 19.19.353 4.457-.427 9.159-3.07 12.775-1.67 2.286-4.002 4.03-6.512 5.348-8.628 4.527-19.726 3.916-27.785-1.531-14.924-10.09-11.478-34.25 5.848-39.691zm3.553-35.923c2.069 36.388 5.824 66.763 8.654 107.803M2.918 203.278c36.492-2.127 75.337-6.52 116.493-9.416" stroke="#000" stroke-width="1.876" stroke-linecap="round" stroke-linejoin="round"/><path d="M40.56 180.525a19.43 19.43 0 00-1.054 6.671 32.265 32.265 0 016.812-2.402m67.01 6.341c-1.582-.936 1.756.59 2.227.755 1.656.584 3.308.831 4.552 1.974-1.926 1.103-3.948 2.753-4.786 4.83M53.11 148.47l3.042-9.756c1.947 3.023 3.896 6.045 5.843 9.066m7.59 2.787c-2.92 3.888-3.03 9.643-.261 13.63m2.999-8.187c-.523 1.389-.74 3.222.446 4.112.868.653 2.235.407 2.912-.44.679-.849.659-2.14.054-3.039-.606-.897-1.714-1.395-2.8-1.385-.42.004-.977.36-.732.7m6.773 3.423l.196 2.837m2.958-5.442c.221-.812.526-1.602.907-2.353.28 1.742.56 3.483.842 5.224m.465-12.149c3.695 3.894 5.252 9.694 4 14.916-.055.234-.406.477-.45.242m1.481 10.856a9.112 9.112 0 00-.03 7.488c.273.598.635 1.19 1.2 1.529 1.344.802 3.179-.302 3.712-1.774.532-1.471.16-3.096-.215-4.614-.3-1.21-.668-2.525-1.686-3.25-1.018-.724-2.849-.293-2.935.952" stroke="#000" stroke-width="1.876" stroke-linecap="round" stroke-linejoin="round"/><path d="M88.477 178.933c.004-.778 1.018-1.064 1.796-1.118l5.254-.358m-40.281 75.209c.025-.282-.508-.224-.543.057-.034.28.215.506.44.678l4.4 3.37m1.512-6.111l-2.68 12.306m65.397-78.281a27.176 27.176 0 016.203 7.873m-5.986-.077l5.557-8.253M91.409 205.09c-1.325 2.665-.502 6.207 1.86 8.016m2.906-3.658a12.92 12.92 0 011.465-3.05 22.03 22.03 0 00.761 5.106m3.662-.282l.189 2.72m2.13-6.648c.026.901.066 1.85.54 2.617.477.767 1.552 1.24 2.318.758.516-.324.736-.972.769-1.58.06-1.147-.52-2.375-1.579-2.826-1.058-.452-2.514.151-2.729 1.28m4.661-5.807c3.197 2.11 4.442 6.706 2.748 10.142m-38.902 25.979c-.655 1.513-.046 3.456 1.355 4.324.886.55 2.142.634 2.92-.063.908-.813.796-2.323.14-3.348-.7-1.092-2.013-1.845-3.297-1.637-1.285.209-2.352 1.546-2.044 2.806m8.151 2.588a6.83 6.83 0 00.597 4.153m4.831-7.925l1.261-2.966c-.04 1.621.232 3.25.795 4.769m.757-7.924a13.893 13.893 0 012.576 9.403m-21.497-6.145a18.576 18.576 0 00-.345 6.167c.095.852.257 1.719.7 2.454.44.736 1.213 1.322 2.072 1.34m10.164-6.187l1.018-.072m-72.234-27.447l2.394-.17m1.218-2.982l1.179-1.498a25.22 25.22 0 00.51 3.971m1.969.018a2.71 2.71 0 01-.468 2.358m2.2-5.714c-.13.724-.205 1.5.09 2.173.298.673 1.084 1.182 1.78.936.33-.118.59-.381.778-.677.535-.84.475-2.08-.29-2.72-.764-.64-2.17-.342-2.45.614m4.312-2.539c1.522 1.551 2.212 3.869 1.788 6m-18.183-4.322c-1.305 2.058-.913 5.019.88 6.664m2.455-54.487c-3.255 3.065-3.492 8.766-.502 12.078m5.359-7.767a26.236 26.236 0 004.26 5.39m4.949-.735c.145 2.168-.709 4.385-2.272 5.903m4.467-11.376l3.243 3.867m-10.965-3.084c-1.36 1.976-2.72 3.954-4.079 5.932m16.265-6.66a25.852 25.852 0 00-1.99 7.73m3.989-13.046a11.625 11.625 0 011.74 8.272c-.112.664-.3 1.347-.753 1.848m119.459 9.226l12.505.173a34.05 34.05 0 00-8.642 10.653l11.158-.1m7.409-8.305a37.951 37.951 0 008.752-.985m6.597-3.306l7.936 9.16c.146.17.328.353.551.332.222-.02.327-.407.108-.45m-23.198-.285c2.649.253 5.329.188 7.965-.192m18.08-9.24a63.46 63.46 0 00-4.746 18.148m12.827-15.193l7.483-.999m5.532-6.473a5.451 5.451 0 013.957-.75c.507.101 1.013.283 1.397.628.928.833.83 2.421.034 3.382-.798.96-2.093 1.376-3.34 1.462 1.125-1.302 3.565-.747 4.248.828.685 1.576-.275 3.554-1.835 4.283-1.56.73-3.486.351-4.881-.652m-9.514-5.709l.548 7.915m-66.459-45.618c-4.414.192-8.824.5-13.223.92a141.467 141.467 0 001.02 18.747 89.993 89.993 0 0116.866-.513m4.852-8.591l11.905-.87c.16-.011.381.028.383.19.003.318-.472-.061-.444-.379m-34.491 1.393l9.607-.678m13.354 4.871a72.945 72.945 0 0011.69-1.068m8.128-9.495c.283 2.896.781 5.77 1.49 8.591a12.922 12.922 0 01.617-7.094c.517-1.344 1.763-2.809 3.119-2.323.864.309 1.272 1.273 1.55 2.142a39.036 39.036 0 011.424 6.056c.457-1.692.079-3.51.453-5.222.373-1.712 2.118-3.41 3.718-2.688 1.17.529 1.514 1.991 1.712 3.257.242 1.522.48 3.043.721 4.564.036.219.112.485.33.53.218.044.291-.41.079-.347m10.02-10.678c-2.119-1.15-5.075.044-6.024 2.26-.951 2.214.043 4.994 2.046 6.337 2.002 1.342 4.77 1.292 6.882.124.375-.206.647-.89.22-.917m-2.003-16.708c.386-.667 1.531-.31 1.802.41.271.72-.015 1.515-.265 2.242-.25.728-.455 1.574-.054 2.23.756 1.233 2.65.62 3.894-.127M351.906 55.86c2.589-1.301 6.025-2.5 8.103-.489 1.07 1.036 1.359 2.79.677 4.115-.683 1.326-2.28 2.116-3.75 1.856 3.456-1.126 7.383 2.72 6.318 6.186-1.065 3.465-6.485 4.468-8.715 1.612m-21.601-5.527l13.143-.25m21.249 5.123c2.183 2.354 1.102 6.82-1.921 7.93m7.466-15.6a42.022 42.022 0 004.264-8.11l1.856 15.564m9.277-17.062a23.162 23.162 0 00-5.751 9.665l10.754-.714m-60.018 8.694a29.418 29.418 0 0110.45-.65m45.018-15.948l1.44 15.778m-78.515-8.387c.35-2.028 2.706-3.101 4.768-3.093 2.064.01 4.072.738 6.134.737 2.063-.003 4.412-1.106 4.73-3.14" stroke="#000" stroke-width="1.876" stroke-linecap="round" stroke-linejoin="round"/><path d="M317.208 57.297a34.39 34.39 0 01.26 10.516c-.08.623-.201 1.29-.65 1.729-.45.44-1.34.463-1.613-.103m8.47-12.587a32.803 32.803 0 00.1 11.37c.076.407.186.854.527 1.092.34.237.958.04.927-.374M93.658 57.433l.479-24.718a61.952 61.952 0 007.152 16.496 81.743 81.743 0 013.808-16.491c.892 7.286 1.782 14.572 2.675 21.858m9.21-2.634c2.134.289 4.774.002 5.716-1.932 1.128-2.324-1.745-5.121-4.255-4.494-2.51.627-3.914 3.551-3.588 6.11.617 4.847 6.947 7.912 11.156 5.402m7.419-9.852l12.507-.881m10.225-18.437c.995 9.835 1.694 15.366 2.69 25.203 3.574-.096 7.146-.36 10.696-.792m-35.733.466l12.23-.864m33.46-13.535c-.003-.048.367 6.63.514 7.894.136 1.175 1.266 9.391 1.088 6.269m13.731-26.437c.528 10.31.958 13.062 2.33 23.292m-21.547-3.73l9.452.86m4.149-20.684l9.939.352m-6.374 24.496c3.914-.556 7.828-1.111 11.74-1.668m17.408-39.61l-5.545 1.538c-.556.154-1.15.335-1.5.79-.374.485-.37 1.15-.35 1.762.561 16.151 2.49 39.808 4.737 55.81.032.224.072.466.236.62.196.187.499.188.77.176l8.866-.367m1.196-58.839c.058 3.417.384 6.83.973 10.195-.068-2.721-.043-5.722 1.743-7.784.476-.55 1.132-1.029 1.86-.997 1.277.055 1.93 1.525 2.244 2.76a49.84 49.84 0 011.301 7.46m-12.308 4.372l20.772-.69c-.373.05-.745.1-1.118.148m-13.842 6.985c.036-.975.924-1.843 1.902-1.863 1.492-.027 2.5 1.713 2.296 3.187-.204 1.475-1.212 2.694-2.16 3.844-.6.728-1.201 1.798-.601 2.523.367.445 1.019.503 1.597.5a16.935 16.935 0 004.012-.517m14.376-11.942a20.42 20.42 0 005.698-.21m7.443 6.045l.575 1.61a557.658 557.658 0 01-2.192-24.148c3.14-.716 6.35-.933 9.564-1.123" stroke="#000" stroke-width="1.876" stroke-linecap="round" stroke-linejoin="round"/><path d="M223.617 45.93c19.052.045 38.108-.92 57.06-2.886l-.969-.324M265.35 24.51a38.377 38.377 0 018.727-.18m-21.253 39.862a99.431 99.431 0 01-.531-14.755c.017-.45.045-.924.285-1.306.476-.758 1.627-.822 2.402-.374.775.447 1.264 1.249 1.72 2.018" stroke="#000" stroke-width="1.876" stroke-linecap="round" stroke-linejoin="round"/><path d="M275.562 1.488c1.932-.048 3.87.159 5.746.613.552.134 1.139.314 1.482.764.313.408.359.952.395 1.465l3.901 56.403c.095 1.382.154 2.9-.68 4.009-.837 1.11-2.93 1.255-3.417-.044m-33.773-8.153l9.599-.051m71.053-35.614c-4.124.417-7.805 3.677-8.71 7.712-.276 1.226-.246 2.679.683 3.525.612.56 1.498.728 2.329.689 2.312-.106 4.41-1.667 5.512-3.698 1.102-2.03 1.299-4.459.933-6.737-.908 2.696.415 5.951 2.947 7.25 2.532 1.299 5.963.48 7.637-1.821m3.969-20.291a184.785 184.785 0 011.273 22.226c1.91.27 3.867.542 5.753.135 1.887-.405 3.719-1.634 4.283-3.476.703-2.29-.866-4.85-3.07-5.796-2.205-.947-4.8-.538-6.97.494" stroke="#000" stroke-width="1.876" stroke-linecap="round" stroke-linejoin="round"/><path d="M321.16 11.077c-3.804 3.35-6.05 8.396-5.987 13.452.062 5.057 2.43 10.036 6.316 13.279m30.723-31.703c3.348 3.804 6.49 7.923 8.182 12.697a24.445 24.445 0 01.125 15.813m.731-26.577a31.45 31.45 0 01.357 3.983c.01-.937.04-1.939.58-2.707.54-.768 1.793-1.103 2.419-.405.727.811.102 2.265.812 3.092-.084-.989.15-2 .659-2.854.199-.333.56-.682.922-.538.266.107.365.426.417.707.166.892.217 1.868.79 2.573.574.703 1.941.797 2.245-.06m16.99 3.388c-2.595-.973-5.702.209-7.377 2.417-1.675 2.208-2.038 5.218-1.42 7.914 2.413.976 5.375-.01 7.002-2.043 1.627-2.033 1.989-4.901 1.27-7.399-.848 3.877 2.164 8.14 6.108 8.646 1.713.22 3.799-.48 4.206-2.155M411.277.931a124.996 124.996 0 00-.545 21.917c2.416-.724 5.075-.492 7.4-1.466 2.326-.975 4.102-4.087 2.448-5.98-.753-.863-1.96-1.16-3.1-1.299a17.524 17.524 0 00-9.192 1.386m-13.08-2.335l.152 1.773c.09-.84.287-1.669.585-2.46.111-.295.248-.599.503-.785.529-.388 1.333-.058 1.675.501.34.559.346 1.252.341 1.906.443-.577.527-1.343.795-2.019.27-.675.912-1.34 1.621-1.173 1.114.26.888 1.904 1.368 2.939.159.338.876.365.687.043m21.005-2.755l.151 1.774c.09-.84.287-1.669.585-2.46.112-.295.247-.599.502-.785.53-.388 1.335-.058 1.675.5.341.56.347 1.253.342 1.907.444-.577.527-1.343.795-2.019.27-.675.913-1.34 1.62-1.173 1.114.26.89 1.904 1.37 2.939.157.338.875.365.685.043M7.555 115.616C4.961 85.827 4.41 58.237 1.692 26.176l143.32 82.107-137.457 7.333z" stroke="#000" stroke-width="1.876" stroke-linecap="round" stroke-linejoin="round"/><path d="M24.17 96.756c-.574-8.604-1.043-17.178-1.529-26.047-.22-4.025-.442-8.09-.679-12.202l61.266 35.098-59.057 3.15zm-12.394 15.289l.194 3.584m5.283-3.89l.195 3.584m5.282-3.89l.195 3.584m5.283-3.89l.195 3.585m5.283-3.891l.195 3.585m5.283-3.89l.194 3.584m5.283-3.89l.195 3.584m5.283-3.89l.194 3.585m5.283-3.891l.195 3.585m5.283-3.891l.194 3.585m5.283-3.89l.195 3.584m5.282-3.891l.195 3.585m5.284-3.89l.193 3.585m5.284-3.89l.195 3.584m5.283-3.89l.194 3.584m5.284-3.89l.194 3.585m5.283-3.891l.194 3.584m5.283-3.89l.195 3.585m5.283-3.891l.194 3.585m5.283-3.89l.195 3.584m5.282-3.89l.195 3.584m5.284-3.89l.193 3.585m119.922 76.934l66.644-65.284 136.78 49.185z" stroke="#000" stroke-width="1.876" stroke-linecap="round" stroke-linejoin="round"/><path stroke="#000" stroke-width="1.876" stroke-linecap="round" stroke-linejoin="round" d="M318.25 141.407l50.62 17.117-74.055 5.838zm-57.28 38.943l.249 3.583m5.224-3.969l.248 3.582m5.225-3.968l.248 3.581m5.224-3.968l.248 3.582m5.225-3.968l.248 3.581m5.225-3.968l.248 3.582m5.224-3.968l.248 3.581m5.224-3.968l.248 3.582m5.225-3.968l.248 3.581m5.225-3.968l.248 3.582m5.225-3.968l.248 3.581m5.224-3.967l.248 3.58m5.224-3.967l.248 3.581m5.225-3.968l.248 3.582m5.224-3.968l.248 3.581m5.225-3.968l.248 3.582m5.225-3.968l.248 3.581m5.225-3.968l.247 3.582m5.224-3.968l.248 3.581m5.226-3.968l.247 3.582m5.225-3.969l.248 3.582m5.225-3.968l.248 3.582m6.421-4.053l.248 3.582m5.225-3.969l.248 3.582m5.224-3.968l.248 3.582m5.225-3.969l.248 3.582m5.225-3.968l.247 3.582m5.225-3.969l.248 3.582m5.225-3.968l.247 3.582m-179.271-33.968c3.506-.51 7.012-1.023 10.517-1.533l3.085 12.1a251.636 251.636 0 002.298-19.415 442.003 442.003 0 0123.106-3.945m-18.659 7.825l14.854 10.354m-3.874-12.74c-2.394 4.287-6.311 11.351-7.483 16.116"/><path d="M238.629 132.192c.458 1.08.66 3.233 1.119 4.313-.192-1.296.043-4.022 1.217-4.61.898-.45 2.036.076 2.602.9.565.826.702 1.862.822 2.854m-70.696-40.584c1.715-1.548 4.46-1.821 6.442-.64 1.981 1.181 3.04 3.72 2.48 5.956-.934 3.748-5.244 5.312-8.624 7.197-.808.451-1.708 1.318-1.286 2.14.29.565 1.038.684 1.676.716a33.47 33.47 0 008.23-.614m18.246-15.365c1.715-1.548 4.46-1.82 6.442-.64 1.981 1.181 3.04 3.72 2.48 5.957-.935 3.746-5.244 5.311-8.624 7.197-.808.45-1.708 1.318-1.286 2.139.29.566 1.038.684 1.676.715 2.754.137 5.526-.07 8.23-.613m-18.676-10.913c.34 2.395-.373 6.279-.033 8.674m4.357-4.613c-2.418-.196-6.263.748-8.68.552m39.673.14c-2.417-.196-6.263.749-8.68.553m8.658 2.659c-2.418-.195-6.264.748-8.681.553m11.012-14.43c.525 2.614.23 4.867.963 7.43 2.733.095 5.474-.03 8.186-.375m-2.138-7.61c.473 3.816 1.427 12.004 1.9 15.82" stroke="#000" stroke-width="1.876" stroke-linecap="round" stroke-linejoin="round"/><path d="M343.375 94.556l-5.259 15.7" fill="#212121"/><path d="M155.444 66.995c-.87-1.275-2.86-.534-4.153.316-2.383 1.566-5.098 3.973-4.259 6.69.261.844.849 1.548 1.475 2.171 3.05 3.036 7.602 5.154 8.547 9.348.193.858.187 1.833-.353 2.53-.406.524-1.05.806-1.683 1.007-3.382 1.072-7.286.304-10-1.968-1.185-.99-2.201-2.44-1.963-3.964.308-1.972 2.444-3.024 4.306-3.754m127.735 30.561l-3.501-19.707c-.167-.939-.331-1.93-.007-2.829.573-1.593 2.693-2.324 4.225-1.601 1.533.723 2.326 2.609 1.995 4.268-.332 1.66-1.642 3.03-3.208 3.683l4.283-.242c.428-.025.89-.04 1.248.192.388.252.555.733.637 1.188.338 1.92-.51 4-2.096 5.142-1.586 1.142-3.832 1.29-5.55.365" stroke="#000" stroke-width="1.876" stroke-linecap="round" stroke-linejoin="round"/></g></svg>